<?xml version="1.0" encoding="UTF-8" standalone="no"?>
<!-- Created with Inkscape (http://www.inkscape.org/) -->

<svg
   width="32"
   height="32"
   viewBox="0 0 8.4666665 8.4666669"
   version="1.1"
   id="svg836"
   inkscape:version="1.1.2 (08b2f3d93c, 2022-04-05)"
   sodipodi:docname="start.svg"
   xmlns:inkscape="http://www.inkscape.org/namespaces/inkscape"
   xmlns:sodipodi="http://sodipodi.sourceforge.net/DTD/sodipodi-0.dtd"
   xmlns="http://www.w3.org/2000/svg"
   xmlns:svg="http://www.w3.org/2000/svg">
  <sodipodi:namedview
     id="namedview838"
     pagecolor="#ffffff"
     bordercolor="#666666"
     borderopacity="1.0"
     inkscape:pageshadow="2"
     inkscape:pageopacity="0.0"
     inkscape:pagecheckerboard="0"
     inkscape:document-units="px"
     showgrid="false"
     units="px"
     inkscape:zoom="8.5626212"
     inkscape:cx="3.0364534"
     inkscape:cy="3.32842"
     inkscape:window-width="1920"
     inkscape:window-height="1002"
     inkscape:window-x="0"
     inkscape:window-y="0"
     inkscape:window-maximized="1"
     inkscape:current-layer="svg836" />
  <defs
     id="defs833" />
    <style id="current-color-scheme" type="text/css">
    .ColorScheme-Background {color:#181818; } .ColorScheme-ButtonBackground { color:#343434; } .ColorScheme-Highlight { color:#4285f4; } .ColorScheme-Text { color:#dfdfdf; } .ColorScheme-ViewBackground { color:#242424; } .ColorScheme-NegativeText { color:#f44336; } .ColorScheme-PositiveText { color:#4caf50; } .ColorScheme-NeutralText { color:#ff9800; }
   </style>
  <g
     id="start-here-kde">
    <rect
       style="fill:none;fill-rule:evenodd;stroke-width:0.264583"
       id="rect927"
       width="8.4666672"
       height="8.4666672"
       x="0"
       y="0" />
    <path
       d="M 4.2320581,1.0583333 C 3.949531,1.7514791 3.7789898,2.2046296 3.4643646,2.8771252 3.6572535,3.0814594 3.8940984,3.3195947 4.2786984,3.5885655 3.8652052,3.4185726 3.5831978,3.2477304 3.372343,3.0704526 2.9696674,3.9106953 2.3386908,5.1078227 1.0583333,7.4083306 2.0647077,6.8271983 2.8448083,6.4691368 3.5717498,6.33231 3.5405129,6.1982626 3.5228544,6.0530958 3.524036,5.9013974 l 0.0012,-0.032095 C 3.5411775,5.2243039 3.8765599,4.7287574 4.2738956,4.7623621 4.6712304,4.7959528 4.9799682,5.34615 4.9640285,5.9911491 4.9610747,6.1122531 4.9473393,6.2291829 4.9234777,6.3373518 5.6426137,6.4779254 6.4143891,6.835253 7.4070696,7.4083333 7.2112943,7.048025 7.036601,6.7232118 6.8697032,6.4137346 6.6069549,6.2101491 6.3327743,5.9449463 5.7735808,5.6580097 6.1579611,5.7577159 6.433122,5.8730432 6.6476192,6.0018568 4.9512208,2.8435511 4.8138467,2.4234292 4.2320849,1.0584459 Z"
       style="fill:currentColor;fill-rule:evenodd;stroke-width:0.0273873"
       id="path856"
       class="ColorScheme-Text" />
  </g>
  <g
     id="22-22-start-here-kde">
    <rect
       style="fill:none;stroke-width:0.264583"
       id="rect1071"
       width="5.8208332"
       height="5.8208332"
       x="8.4666672"
       y="2.645834" />
    <path
       d="m 11.376234,3.439584 c -0.188352,0.462097 -0.302046,0.764198 -0.511796,1.212528 0.128592,0.136223 0.286489,0.29498 0.542889,0.474294 C 11.131665,5.013077 10.94366,4.899182 10.80309,4.780997 10.53464,5.341159 10.113989,6.139244 9.2604172,7.672915 9.9313332,7.285494 10.4514,7.046787 10.936028,6.955569 10.915208,6.866199 10.903438,6.769426 10.904218,6.668294 l 7.85e-4,-0.0214 c 0.01063,-0.429999 0.234216,-0.760363 0.499106,-0.737961 0.264891,0.0224 0.470715,0.389193 0.460089,0.819192 -0.002,0.08074 -0.01113,0.158689 -0.02703,0.230802 0.479424,0.09372 0.993941,0.331934 1.655728,0.713987 C 13.362379,7.432709 13.245917,7.216167 13.134651,7.009849 12.959486,6.874125 12.776699,6.697323 12.403903,6.506032 12.660157,6.572502 12.843597,6.649388 12.986596,6.735264 11.855663,4.629726 11.76408,4.349645 11.376239,3.439656 Z"
       style="fill:currentColor;fill-rule:evenodd;stroke-width:0.0182582"
       id="path856-3"
       class="ColorScheme-Text" />
  </g>
</svg>
